<svg width="72" height="72" viewBox="0 0 72 72" fill="none" xmlns="http://www.w3.org/2000/svg">
<mask id="mask0_623_271" style="mask-type:alpha" maskUnits="userSpaceOnUse" x="0" y="0" width="72" height="72">
<rect width="71.9294" height="71.9294" fill="#D9D9D9"/>
</mask>
<g mask="url(#mask0_623_271)">
<path d="M42.1295 45.3099C44.472 42.9673 42.8129 38.9618 39.5 38.9618H14.9853C13.3301 38.9618 11.9883 37.62 11.9883 35.9648C11.9883 34.3095 13.3301 32.9677 14.9853 32.9677H39.5C42.8129 32.9677 44.472 28.9622 42.1294 26.6197L33.8294 18.3196C32.6531 17.1433 32.6616 15.2335 33.8483 14.0677C35.0202 12.9163 36.9011 12.9246 38.0628 14.0863L49.3346 25.3582C55.1925 31.216 55.1925 40.7135 49.3346 46.5714L38.0628 57.8432C36.9011 59.0049 35.0202 59.0132 33.8483 57.8619C32.6616 56.696 32.6531 54.7862 33.8294 53.6099L42.1295 45.3099Z" fill="#1C1B1F"/>
</g>
</svg>
