<svg width="69" height="75" viewBox="0 0 69 75" fill="none" xmlns="http://www.w3.org/2000/svg">
<path d="M2.93631 41.4024C2.73611 40.1567 2.59152 38.633 2.50254 36.8311C2.41356 35.0293 2.36907 33.0829 2.36907 30.9919C2.36907 28.8341 2.40244 26.6208 2.46917 24.3518C2.55815 22.0828 2.65825 19.9029 2.76947 17.8118C2.90294 15.6986 3.04753 13.83 3.20325 12.2062L9.00913 12.3063C8.76444 13.8634 8.56424 15.5985 8.40853 17.5115C8.27506 19.4024 8.16383 21.371 8.07485 23.4175C9.65423 23.1951 11.3671 23.0282 13.2134 22.917C15.0597 22.8058 16.8393 22.7502 18.5521 22.7502C19.3752 22.7502 20.1649 22.7724 20.9212 22.8169C20.899 21.1486 20.8656 19.5914 20.8211 18.1455C20.7766 16.6996 20.721 15.4761 20.6543 14.4751C20.5875 13.4741 20.5097 12.7845 20.4207 12.4064L26.1599 12.0393C26.3601 13.9079 26.5158 16.1435 26.627 18.7461C26.7605 21.3488 26.8272 24.1071 26.8272 27.0212C26.8272 29.3791 26.7827 31.7816 26.6937 34.2285C26.6048 36.6532 26.449 38.9889 26.2266 41.2356H20.6543C20.7433 40.5238 20.81 39.5561 20.8545 38.3327C20.899 37.0869 20.9323 35.6855 20.9546 34.1284C20.9768 32.549 20.9879 30.9029 20.9879 29.1901C20.9879 28.8786 20.9879 28.5561 20.9879 28.2224C20.5653 28.2224 20.1315 28.2224 19.6866 28.2224C19.264 28.2002 18.8302 28.189 18.3853 28.189C16.628 28.189 14.8484 28.2558 13.0466 28.3892C11.267 28.5005 9.56525 28.6673 7.94139 28.8897C7.94139 29.6016 7.94139 30.3134 7.94139 31.0252C7.94139 32.9828 7.95251 34.818 7.97475 36.5308C8.01924 38.2437 8.08598 39.8008 8.17496 41.2022L2.93631 41.4024ZM42.9769 41.6026C40.8414 41.6026 39.073 41.2578 37.6715 40.5683C36.2701 39.9009 35.1467 38.9778 34.3014 37.7988C33.4784 36.5976 32.8555 35.2184 32.4329 33.6613C32.0325 32.1041 31.7655 30.4358 31.6321 28.6562C31.5208 26.8766 31.4652 25.0748 31.4652 23.2507C31.4652 21.1819 31.532 19.1688 31.6654 17.2112C31.7989 15.2315 31.9435 13.5742 32.0992 12.2395L38.2388 12.6066C38.0163 14.2304 37.8384 15.6875 37.7049 16.9777C37.5937 18.2456 37.5158 19.4468 37.4713 20.5813C37.4268 21.7158 37.4046 22.8837 37.4046 24.0849C37.4046 25.0192 37.4157 26.0313 37.438 27.1213C37.4824 28.189 37.5826 29.2568 37.7383 30.3245C37.9162 31.37 38.1832 32.3266 38.5391 33.1941C38.9172 34.0394 39.44 34.729 40.1073 35.2629C40.7969 35.7745 41.6756 36.0303 42.7433 36.0303C43.9001 36.0303 44.8343 35.7745 45.5462 35.2629C46.2803 34.729 46.8475 34.0283 47.2479 33.1607C47.6483 32.271 47.9375 31.2922 48.1155 30.2244C48.2934 29.1344 48.3935 28.0333 48.4158 26.9211C48.4602 25.7866 48.4825 24.7189 48.4825 23.7178C48.4825 21.827 48.4269 19.9918 48.3157 18.2123C48.2044 16.4327 48.0598 14.5419 47.8819 12.5398L54.0214 12.0727C54.1994 14.2082 54.3329 16.1657 54.4218 17.9453C54.5108 19.7027 54.5553 21.3265 54.5553 22.8169C54.5553 24.8412 54.4775 26.7876 54.3217 28.6562C54.1883 30.5247 53.8991 32.2487 53.4542 33.8281C53.0093 35.3852 52.3642 36.7533 51.5189 37.9323C50.6736 39.089 49.5502 39.9899 48.1488 40.635C46.7696 41.2801 45.0457 41.6026 42.9769 41.6026ZM61.6333 41.7027C60.788 41.7027 60.0873 41.5137 59.5312 41.1355C58.9751 40.7573 58.5635 40.268 58.2966 39.6673C58.0297 39.0667 57.8962 38.4439 57.8962 37.7988C57.8962 36.5753 58.2855 35.641 59.0641 34.9959C59.8426 34.3286 60.7769 33.9949 61.8669 33.9949C62.9791 33.9949 63.8578 34.3286 64.5029 34.9959C65.148 35.6633 65.4705 36.5531 65.4705 37.6653C65.4705 39.089 65.0813 40.1122 64.3027 40.7351C63.5464 41.3802 62.6566 41.7027 61.6333 41.7027Z" fill="#0808FF"/>
<path d="M13.8589 57.7111C15.1038 57.7111 16.1046 58.0956 16.8613 58.8645C17.6303 59.6212 18.0147 60.683 18.0147 62.05V68H15.4517V62.3979C15.4517 61.6045 15.2503 61.0004 14.8475 60.5854C14.4447 60.1582 13.8955 59.9446 13.1998 59.9446C12.5041 59.9446 11.9488 60.1582 11.5338 60.5854C11.1311 61.0004 10.9297 61.6045 10.9297 62.3979V68H8.3666V62.3979C8.3666 61.6045 8.16521 61.0004 7.76244 60.5854C7.35967 60.1582 6.81045 59.9446 6.11475 59.9446C5.40686 59.9446 4.84542 60.1582 4.43045 60.5854C4.02768 61.0004 3.8263 61.6045 3.8263 62.3979V68H1.26323V57.8576H3.8263V59.0842C4.15584 58.657 4.57691 58.3214 5.08953 58.0773C5.61435 57.8332 6.18799 57.7111 6.81045 57.7111C7.60378 57.7111 8.31167 57.882 8.93413 58.2237C9.55659 58.5533 10.0387 59.0293 10.3804 59.6517C10.71 59.0659 11.186 58.596 11.8084 58.242C12.4431 57.8881 13.1266 57.7111 13.8589 57.7111ZM29.8754 62.7091C29.8754 63.0752 29.851 63.4048 29.8021 63.6977H22.3875C22.4486 64.43 22.7049 65.0036 23.1565 65.4186C23.608 65.8336 24.1634 66.0411 24.8225 66.0411C25.7745 66.0411 26.4518 65.6322 26.8546 64.8145H29.6191C29.3261 65.7909 28.7647 66.5964 27.9348 67.2311C27.1048 67.8535 26.0857 68.1648 24.8774 68.1648C23.901 68.1648 23.0222 67.9512 22.2411 67.524C21.4722 67.0846 20.868 66.4683 20.4286 65.6749C20.0014 64.8816 19.7878 63.9662 19.7878 62.9288C19.7878 61.8791 20.0014 60.9577 20.4286 60.1643C20.8558 59.371 21.4538 58.7607 22.2228 58.3336C22.9917 57.9064 23.8766 57.6928 24.8774 57.6928C25.8416 57.6928 26.702 57.9003 27.4588 58.3153C28.2277 58.7302 28.8196 59.3222 29.2346 60.0911C29.6618 60.8478 29.8754 61.7205 29.8754 62.7091ZM27.2208 61.9768C27.2085 61.3177 26.9705 60.7929 26.5068 60.4023C26.043 59.9996 25.4754 59.7982 24.8041 59.7982C24.1695 59.7982 23.6325 59.9935 23.1931 60.384C22.7659 60.7624 22.5035 61.2933 22.4058 61.9768H27.2208ZM37.3666 57.7111C38.5749 57.7111 39.5513 58.0956 40.2958 58.8645C41.0404 59.6212 41.4126 60.683 41.4126 62.05V68H38.8495V62.3979C38.8495 61.5923 38.6482 60.976 38.2454 60.5488C37.8426 60.1094 37.2934 59.8897 36.5977 59.8897C35.8898 59.8897 35.3284 60.1094 34.9134 60.5488C34.5106 60.976 34.3092 61.5923 34.3092 62.3979V68H31.7462V57.8576H34.3092V59.1208C34.651 58.6814 35.0843 58.3397 35.6091 58.0956C36.1461 57.8393 36.732 57.7111 37.3666 57.7111ZM46.8341 59.9629V64.8694C46.8341 65.2111 46.9134 65.4613 47.0721 65.62C47.243 65.7665 47.5237 65.8397 47.9143 65.8397H49.1043V68H47.4932C45.3329 68 44.2527 66.9504 44.2527 64.8511V59.9629H43.0444V57.8576H44.2527V55.3494H46.8341V57.8576H49.1043V59.9629H46.8341ZM55.4514 68.1648C54.475 68.1648 53.5963 67.9512 52.8151 67.524C52.034 67.0846 51.4176 66.4683 50.9661 65.6749C50.5267 64.8816 50.307 63.9662 50.307 62.9288C50.307 61.8913 50.5328 60.976 50.9844 60.1826C51.4482 59.3893 52.0767 58.779 52.8701 58.3519C53.6634 57.9125 54.5483 57.6928 55.5247 57.6928C56.5011 57.6928 57.3859 57.9125 58.1793 58.3519C58.9726 58.779 59.5951 59.3893 60.0467 60.1826C60.5104 60.976 60.7423 61.8913 60.7423 62.9288C60.7423 63.9662 60.5043 64.8816 60.0283 65.6749C59.5646 66.4683 58.9299 67.0846 58.1244 67.524C57.331 67.9512 56.44 68.1648 55.4514 68.1648ZM55.4514 65.9312C55.9152 65.9312 56.3485 65.8214 56.7513 65.6017C57.1663 65.3698 57.4958 65.0281 57.7399 64.5765C57.984 64.1249 58.106 63.5757 58.106 62.9288C58.106 61.9646 57.8497 61.2262 57.3371 60.7136C56.8367 60.1887 56.2204 59.9263 55.488 59.9263C54.7557 59.9263 54.1394 60.1887 53.639 60.7136C53.1508 61.2262 52.9067 61.9646 52.9067 62.9288C52.9067 63.893 53.1447 64.6375 53.6207 65.1623C54.1089 65.6749 54.7191 65.9312 55.4514 65.9312ZM65.1855 59.432C65.5151 58.895 65.9422 58.4739 66.4671 58.1688C67.0041 57.8637 67.6143 57.7111 68.2978 57.7111V60.4023H67.6204C66.8149 60.4023 66.2047 60.5915 65.7897 60.9699C65.3869 61.3482 65.1855 62.0073 65.1855 62.9471V68H62.6225V57.8576H65.1855V59.432Z" fill="black"/>
</svg>
